<svg xmlns="http://www.w3.org/2000/svg" viewBox="0 0 140 55" fill="none"><g class="icon-logo_svg__logo-type" fill="#58585A"><path fill-rule="evenodd" clip-rule="evenodd" d="M68.903 14.829c-.233.275-.45.564-.652.864v-2.394h-5.028v19.899h5.396V21.273c-.056-.48.007-.967.184-1.417.864-1.19 2.521-1.147 4.023-.977v-5.608a4.249 4.249 0 00-3.853 1.557M62.486 17.222V13.3h-1.855V7.988h-4.957v5.297h-1.87a9.559 9.559 0 00-.962-3.853C50.958 6.6 45.845 6.104 42.828 7.648a5.864 5.864 0 00-3.045 4.575 8.37 8.37 0 001.841 6.189c1.643 2.138 4.348 3.838 6.175 5.948a3.682 3.682 0 01.553 4.008 2.053 2.053 0 01-2.125.652 1.784 1.784 0 01-1.416-1.671 25.481 25.481 0 010-3.3h-5.41v1.94c0 3.767.85 4.886 2.662 6.232 2.238 1.67 5.92 1.558 8.258.75a5.665 5.665 0 003.81-4.249c.139-.637.2-1.288.183-1.94 0-3.923-2.662-6.515-5.297-8.823-1.416-1.29-3.215-2.592-3.81-4.391a2.38 2.38 0 01.369-1.983 1.898 1.898 0 011.87-.496 1.756 1.756 0 011.147 1.417c.099.595.085 2.832.085 2.832h5.07v1.827h1.87v12.053c-.025.77.125 1.535.438 2.238 1.176 2.138 4.164 1.77 6.345 1.728v-3.867a2.69 2.69 0 01-1.076-.142 1.105 1.105 0 01-.666-.977V17.222h1.827zM86.153 13.299h-5.085v13.61c.02.498-.109.991-.368 1.417a1.415 1.415 0 01-1.416.665 1.076 1.076 0 01-.751-.906 16.713 16.713 0 010-1.813V13.3h-5.099v15.367a8 8 0 00.227 2.407 3.922 3.922 0 002.69 2.309 4.732 4.732 0 004.731-1.983c.097.594.135 1.197.114 1.799h4.97l-.013-19.9z"></path><path d="M95.075 20.437h-2.832a9.347 9.347 0 01.198-3.06 1.162 1.162 0 01.822-.764 1.274 1.274 0 011.515.61c.3 1.043.392 2.135.27 3.214h.027zm3.881-4.957c-1.799-3.045-6.118-2.833-8.64-1.94a4.588 4.588 0 00-2.988 4.15c-.113 1.968-.141 5.792 0 9.064 0 2.478.369 4.248 2.139 5.58a7.96 7.96 0 008.2.156c2.224-1.417 2.167-4.023 2.167-6.94H95.02v1.274c0 .921 0 2.097-.553 2.635a1.544 1.544 0 01-1.416.141 1.274 1.274 0 01-.708-1.147c-.1-1.518-.1-3.042 0-4.56h7.563c0-3.796.085-6.784-.864-8.413"></path><path fill-rule="evenodd" clip-rule="evenodd" d="M116.773 20.593c-.821-.723-2.039-1.501-2.365-2.521a1.421 1.421 0 01.354-1.416 1.415 1.415 0 011.133-.227c1.005.255 1.062.878 1.062 3.23h4.631a8.486 8.486 0 00-.566-3.995 4.712 4.712 0 00-4.504-2.662c-2.436-.1-4.603 0-6.161 1.855v-1.629a4.049 4.049 0 00-3.696 1.615c-.227.283-.453.595-.652.864v-2.408h-5.013v19.899h5.325V21.287c-.069-.48-.005-.97.184-1.416a3.202 3.202 0 013.045-1.048v.099c.326 2.506 2.748 4.248 4.603 5.75 1.076.963 2.578 1.912 2.832 3.399a1.612 1.612 0 01-.58 1.671 1.5 1.5 0 01-1.416 0c-.978-.439-.893-2.238-.864-3.498h-4.745s-.439 4.008 1.841 5.934c2.28 1.926 7.082 1.657 8.951.113a5.094 5.094 0 001.742-4.362c0-2.96-2.832-5.41-5.198-7.364"></path></g><path fill-rule="evenodd" clip-rule="evenodd" d="M13.299 6.628L0 33.084h6.685L19.94 6.628H13.3zM24.955 0L11.642 26.456h6.7L31.582 0h-6.628zM26.612 13.299L13.313 39.755h6.685L33.24 13.3h-6.628z" fill="#E2001A"></path><g class="icon-logo_svg__logo-type" fill="#58585A"><path d="M39.273 51.666V41.172h5.269v1.076h-4.107v3.47h3.838v1.048h-3.838v3.88h4.107v1.048l-5.269-.028zM47.375 44.74a2.435 2.435 0 011.983-1.062 1.742 1.742 0 011.912 1.983v6.005h-1.105v-5.665c0-.807-.27-1.416-1.161-1.416-.408-.004-.8.154-1.091.439a1.658 1.658 0 00-.538 1.473v5.197H46.27v-7.803h1.105v.85zM56.482 45.973c0-.92-.298-1.417-1.233-1.417-.934 0-1.232.369-1.232 1.176 0 .807.822 1.133 1.587 1.416 1.118.51 2.237.78 2.237 2.238a2.677 2.677 0 01-4.574 1.586 2.437 2.437 0 01-.425-1.671h1.048c0 .949.283 1.544 1.317 1.544s1.416-.368 1.416-1.317c0-.95-1.118-1.204-1.926-1.544-1.204-.44-1.898-.85-1.898-2.21a2.11 2.11 0 012.351-2.11c1.544 0 2.436.694 2.408 2.294l-1.076.015zM63.28 50.646a2.011 2.011 0 01-1.841 1.233 1.729 1.729 0 01-1.884-1.983V43.89h1.105v6.047c0 .652.212 1.006 1.005 1.006a1.6 1.6 0 001.331-.694c.233-.434.341-.925.312-1.416V43.89h1.062v7.775h-1.104l.014-1.02zM67.656 45.165a2.011 2.011 0 012.28-1.416v1.09c-1.416-.254-2.266.638-2.266 2.054v4.716h-1.105v-7.718h1.063l.028 1.274zM71.126 42.574v-1.417h1.105v1.417h-1.105zm0 9.092v-7.775h1.105v7.775h-1.105zM75.332 44.74a2.408 2.408 0 011.969-1.076 1.755 1.755 0 011.926 1.983v6.005h-1.105v-5.665c0-.807-.269-1.416-1.175-1.416a1.586 1.586 0 00-1.09.439 1.686 1.686 0 00-.496 1.416v5.198h-1.077V43.89h1.077l-.029.85zM85.09 43.89h1.105v6.856a4.25 4.25 0 01-.58 2.492 2.393 2.393 0 01-2.139 1.077 2.069 2.069 0 01-2.323-1.898h1.077a1.061 1.061 0 001.218.963c1.798 0 1.614-1.77 1.629-2.62a1.84 1.84 0 01-1.686 1.119c-1.416 0-2.493-1.02-2.493-4.15 0-1.643.411-4.05 2.465-4.05a1.87 1.87 0 011.742 1.09l-.014-.878zm-3.087 3.881c0 1.912.326 3.173 1.416 3.173 1.686 0 1.672-2.082 1.672-3.328 0-1.544-.326-3.003-1.558-3.003-1.473 0-1.53 2.11-1.53 3.158zM96.62 44.316c0-1.247-.44-2.309-1.899-2.309-2.01 0-2.04 2.833-2.04 4.249 0 1.416-.084 4.603 2.04 4.603 1.417 0 1.686-1.133 1.827-2.28v-.723h1.162v.652a3.98 3.98 0 01-.61 2.238 2.62 2.62 0 01-2.28 1.175c-3.229 0-3.342-3.116-3.342-5.665 0-2.55.354-5.34 3.328-5.34a2.932 2.932 0 012.975 3.357l-1.162.043zM104.026 49.074a2.385 2.385 0 01-.505 1.973 2.381 2.381 0 01-1.846.86c-1.416 0-2.52-.977-2.52-4.121 0-1.63.424-4.08 2.492-4.08 2.493-.042 2.379 2.352 2.379 4.207h-3.753c0 1.062-.156 3.073 1.416 3.073 1.063 0 1.417-.977 1.289-1.87l1.048-.042zm-1.09-2.11c0-.906 0-2.351-1.275-2.351s-1.317 1.416-1.416 2.351h2.691zM106.93 45.165a2.035 2.035 0 012.294-1.416v1.09c-1.416-.254-2.28.638-2.28 2.054v4.716h-1.076v-7.718h1.062v1.274zM112.255 43.89h1.303v.935h-1.289v5.312c0 .255-.099.594.524.594h.736v.935h-1.218c-.651 0-1.147-.099-1.147-1.274v-5.567h-1.076v-.934h1.02v-2.125h1.09l.057 2.125zM119.69 51.666h-.24c-.949 0-1.289 0-1.417-1.104a1.98 1.98 0 01-1.728 1.26c-1.557 0-1.996-.864-1.996-2.28a1.964 1.964 0 011.048-1.827c.623-.283 2.195-.878 2.336-.992.142-.113.213-.481.213-.892 0-.878-.34-1.218-1.232-1.218-.893 0-1.147.467-1.133 1.416h-1.006c0-1.657.822-2.365 2.379-2.365a1.854 1.854 0 012.111 2.11v4.462c0 .198 0 .481.198.595.155.028.313.028.467 0v.835zm-1.812-4.249c-.553.312-1.162.553-1.757.836a1.416 1.416 0 00-.679 1.345c0 .78.198 1.29 1.09 1.29a1.416 1.416 0 001.416-1.587l-.07-1.884zM121.022 42.574v-1.417h1.105v1.417h-1.105zm0 9.092v-7.775h1.105v7.775h-1.105zM125.271 44.74a2.408 2.408 0 011.983-1.076 1.758 1.758 0 011.926 1.983v6.005h-1.077v-5.665c0-.807-.269-1.416-1.161-1.416a1.6 1.6 0 00-1.105.439 1.687 1.687 0 00-.566 1.487v5.197h-1.105v-7.803h1.105v.85zM132.479 43.89h1.289v.935h-1.289v5.312c0 .255-.099.594.524.594h.765v.935h-1.218c-.651 0-1.147-.099-1.147-1.274v-5.567h-1.076v-.934h1.076v-2.125h1.091l-.015 2.125zM134.151 43.89h1.147l1.742 6.742 1.813-6.741H140l-2.308 7.435c-.194.677-.436 1.34-.723 1.983a1.83 1.83 0 01-1.77 1.02c-.27 0-.537-.043-.793-.128v-.977c.259.113.539.171.821.17 1.034 0 1.062-.765 1.417-1.544l-2.493-7.96z"></path></g></svg>